<svg width="64" height="64" xmlns="http://www.w3.org/2000/svg">

 <g>
  <title>background</title>
  <rect fill="none" id="canvas_background" height="66" width="66" y="-1" x="-1"/>
 </g>
 <g>
  <title>Layer 1</title>
  <circle id="svg_2" r="32" fill="#10ac84" cy="32" cx="32"/>
  <path opacity="0.2" id="svg_5" fill="#231F20" d="m32,22.923l-0.417,0l-17.083,0c-1.38,0 -2.5,1.063 -2.5,2.422l0,22.193c0,1.359 1.12,2.462 2.5,2.462l35,0c1.38,0 2.5,-1.103 2.5,-2.462l0,-19.692l0,-2.501l0,-2.422l-20,0z"/>
  <path id="svg_8" fill="#FFFFFF" d="m32,20.923l-0.417,0l-17.083,0c-1.38,0 -2.5,1.063 -2.5,2.422l0,22.193c0,1.359 1.12,2.462 2.5,2.462l35,0c1.38,0 2.5,-1.103 2.5,-2.462l0,-19.692l0,-2.501l0,-2.422l-20,0z"/>
  <path id="svg_10" fill="#e0e0e0" d="m52,18.462c0,-1.359 -1.12,-2.462 -2.5,-2.462l-12.5,0c-1.38,0 -2.5,1.103 -2.5,2.462c0,0 -0.325,2.257 -2.5,2.461l20,0l0,-2.461z"/>
 </g>
</svg>